<svg xmlns="http://www.w3.org/2000/svg" viewBox="0 0 600 600" fill="none" shape-rendering="auto"><metadata xmlns:rdf="http://www.w3.org/1999/02/22-rdf-syntax-ns#" xmlns:xsi="http://www.w3.org/2001/XMLSchema-instance" xmlns:dc="http://purl.org/dc/elements/1.1/" xmlns:dcterms="http://purl.org/dc/terms/"><rdf:RDF><rdf:Description><dc:title>Lorelei Neutral</dc:title><dc:creator>Lisa Wischofsky</dc:creator><dc:source xsi:type="dcterms:URI">https://www.figma.com/community/file/1198749693280469639</dc:source><dcterms:license xsi:type="dcterms:URI">https://creativecommons.org/publicdomain/zero/1.0/</dcterms:license><dc:rights>Remix of „Lorelei Neutral” (https://www.figma.com/community/file/1198749693280469639) by „Lisa Wischofsky”, licensed under „CC0 1.0” (https://creativecommons.org/publicdomain/zero/1.0/)</dc:rights></rdf:Description></rdf:RDF></metadata><mask id="viewboxMask"><rect width="600" height="600" rx="0" ry="0" x="0" y="0" fill="#fff" /></mask><g mask="url(#viewboxMask)"><rect fill="#ffffff" width="600" height="600" x="0" y="0" /><g transform="translate(-246 -234)"><path d="M503 394c7 0 14 2 19 6 4 2 7 4 8 8 1 2 0 5-2 6-5 1-10-2-14-3l-9-1c-13-1-26 1-39 4a169 169 0 0 0-60 31c-4 2-9 5-14 4-3 0-3-4-2-7 1-6 7-11 12-16 10-9 23-15 35-20 20-9 44-14 66-12ZM659 396c7-2 14-1 20 3 4 3 8 6 9 11 1 3 1 6-2 7s-7 1-10-1c-5-3-9-6-15-6-5 0-10 1-14 3-8 4-16 11-20 19l-6 9h-3v-6c2-8 7-16 13-22 7-8 17-15 28-17Z" fill="#000000"/></g><g transform="translate(-246 -234)"><path d="M642 509c6-1 10 2 13 7 3 7 3 17-1 24-3 5-10 8-16 5-5-3-6-8-7-13-1-4 0-10 2-14s5-8 9-9ZM494 514c6-3 11-1 15 3 5 6 6 15 2 22-2 5-8 11-14 11-5 0-9-4-12-8-3-7-2-14 1-21 2-3 5-6 8-7Z" fill="#000000"/></g><g transform="translate(-246 -234)"></g><g transform="translate(-246 -234)"><path d="M619 659c1 3-1 7-2 9-5 9-14 13-21 21 0 4-2 7-3 11-3 9-6 17-13 23-3 2-7 2-11 1-3 0-6-2-7-5-1-5 0-9 3-13 6-12 16-19 26-27 8-6 15-10 21-17 2-1 4-4 7-3Z" fill="#000000"/></g><g transform="translate(-246 -234)"><path d="M597 505h1l3 15 3 26 8 13 6 12c2 5 2 10 5 14 3 5 5 10 5 16 0 9-6 17-14 20l-19 8c-5 3-9 5-15 5-5 0-11 0-13-5-2-2 0-4 2-5l12-3 16-5 13-5c6-2 9-8 7-14l-5-8-7-17-7-19c-4-8-6-17-5-26 0-7 1-15 4-22Z" fill="#000000"/></g><g transform="translate(-246 -234)"></g></g></svg>